<svg width="212" height="65" viewBox="0 0 212 65" fill="none" xmlns="http://www.w3.org/2000/svg">
<g clip-path="url(#clip0_1_2)">
<path d="M17.68 50.4C16.32 49.92 14.8 48.56 14.72 46.48V3.6H3.12V46.56C2.88 53.2 9.28 62 19.04 62H43.6V50.56C18.08 50.56 18.56 50.56 17.68 50.4ZM73.8338 1.84H69.5938C55.9138 1.84 45.7538 13.36 45.7538 24.8C45.7538 28.08 45.7538 31.36 45.7538 34.64C45.7538 40.96 45.1938 46.64 49.7538 53.28C53.8338 59.6 61.1138 63.92 69.5938 63.92H73.8338C82.3938 63.92 89.5938 59.44 93.6738 53.28C98.1538 46.4 97.6738 41.04 97.6738 32.48C97.6738 29.68 97.8338 26.8 97.5938 23.92C96.6338 10.88 85.7538 1.84 73.8338 1.84ZM85.9938 41.84C85.5138 44.88 84.1538 47.36 81.9138 49.36C79.5938 51.36 76.9538 52.32 73.8338 52.32H69.5938C66.4738 52.32 63.8338 51.36 61.5138 49.36C59.1938 47.36 57.8338 44.88 57.3538 41.84C57.1938 40.64 57.1938 24.8 57.3538 23.84C57.8338 20.8 59.1938 18.4 61.5138 16.4C63.9138 14.32 67.7538 13.28 71.6738 13.28C75.5938 13.28 79.5138 14.32 81.8338 16.4C84.1538 18.4 85.5138 20.8 85.9938 23.84C86.1538 24.8 86.2338 40.64 85.9938 41.84ZM129.52 31.68V43.28H142.16C141.52 45.6 140.24 47.68 138.32 49.36C133.52 53.44 122.64 53.52 117.92 49.36C115.12 46.96 113.6 43.68 113.6 40C113.68 33.76 113.68 32 113.6 25.68C113.6 18.96 119.04 13.36 126 13.36H130.24C136.64 13.36 141.44 18.16 142.32 23.52L142.48 23.36L153.28 19.52C150.56 9.36 141.12 1.84 130.24 1.84H126C112.32 1.84 102.16 13.36 102.16 24.8C102.16 40.8 101.92 42.48 102.88 46.08C105.36 55.84 114.4 63.92 126 63.92H130.24C143.84 63.92 152.88 53.04 153.92 42.96C154.32 39.2 154.08 35.44 154.08 31.68H129.52ZM186.256 1.84H182.016C168.336 1.84 158.176 13.36 158.176 24.8C158.176 28.08 158.176 31.36 158.176 34.64C158.176 40.96 157.616 46.64 162.176 53.28C166.256 59.6 173.536 63.92 182.016 63.92H186.256C194.816 63.92 202.016 59.44 206.096 53.28C210.576 46.4 210.096 41.04 210.096 32.48C210.096 29.68 210.256 26.8 210.016 23.92C209.056 10.88 198.176 1.84 186.256 1.84ZM198.416 41.84C197.936 44.88 196.576 47.36 194.336 49.36C192.016 51.36 189.376 52.32 186.256 52.32H182.016C178.896 52.32 176.256 51.36 173.936 49.36C171.616 47.36 170.256 44.88 169.776 41.84C169.616 40.64 169.616 24.8 169.776 23.84C170.256 20.8 171.616 18.4 173.936 16.4C176.336 14.32 180.176 13.28 184.096 13.28C188.016 13.28 191.936 14.32 194.256 16.4C196.576 18.4 197.936 20.8 198.416 23.84C198.576 24.8 198.656 40.64 198.416 41.84Z" fill="url(#paint0_linear_1_2)"/>
</g>
<defs>
<linearGradient id="paint0_linear_1_2" x1="107" y1="1" x2="107" y2="64" gradientUnits="userSpaceOnUse">
<stop stop-color="#000071"/>
<stop offset="1" stop-color="#000024"/>
</linearGradient>
<clipPath id="clip0_1_2">
<rect width="212" height="65" fill="white"/>
</clipPath>
</defs>
</svg>
