<svg width="36" height="36" viewBox="0 0 36 36" fill="none" xmlns="http://www.w3.org/2000/svg">
<path d="M15 17H18V19H15V17Z" fill="#FBCA0C"/>
<path d="M26.45 14.17C24.6765 11.2679 22.257 8.81417 19.38 7.00005C18.0509 6.15769 16.5358 5.65349 14.967 5.53147C13.3982 5.40945 11.8234 5.67332 10.38 6.30005C9.11751 6.89555 8.01894 7.78942 7.17918 8.90446C6.33941 10.0195 5.78369 11.3222 5.56 12.7C5.48 13.17 5.42 13.62 5.36 14.06C4.42375 14.2118 3.57188 14.6913 2.95643 15.413C2.34098 16.1347 2.00201 17.0516 2 18V24.13C2 24.6605 2.21071 25.1692 2.58579 25.5443C2.96086 25.9193 3.46957 26.13 4 26.13V18C4 17.4696 4.21071 16.9609 4.58579 16.5858C4.96086 16.2108 5.46957 16 6 16H24.73C26.6573 16.0027 28.5049 16.7695 29.8677 18.1323C31.2306 19.4951 31.9974 21.3427 32 23.27V24H30C29.5777 22.9702 28.7909 22.1318 27.7899 21.645C26.7889 21.1582 25.6436 21.057 24.5727 21.3607C23.5019 21.6644 22.5803 22.3518 21.9839 23.2916C21.3875 24.2315 21.158 25.358 21.3392 26.4563C21.5204 27.5546 22.0996 28.5477 22.9664 29.2461C23.8331 29.9446 24.9266 30.2994 26.0383 30.243C27.15 30.1866 28.202 29.7228 28.9936 28.9403C29.7852 28.1577 30.2609 27.111 30.33 26H32C32.5304 26 33.0391 25.7893 33.4142 25.4143C33.7893 25.0392 34 24.5305 34 24V23.27C33.996 21.112 33.2399 19.0228 31.862 17.3619C30.484 15.701 28.5702 14.5724 26.45 14.17ZM11 14H6.93C6.93 13.69 7.02 13.37 7.08 13C7.25277 11.9015 7.70365 10.8654 8.38976 9.99026C9.07588 9.11511 9.97443 8.43 11 8.00005V14ZM13 14V7.58005C14.867 7.33761 16.7603 7.74737 18.36 8.74005C20.5437 10.1002 22.4285 11.8897 23.9 14H13ZM25.8 28.38C25.3055 28.38 24.8222 28.2334 24.4111 27.9587C24 27.684 23.6795 27.2936 23.4903 26.8368C23.3011 26.3799 23.2516 25.8773 23.348 25.3923C23.4445 24.9074 23.6826 24.4619 24.0322 24.1123C24.3819 23.7626 24.8273 23.5245 25.3123 23.4281C25.7972 23.3316 26.2999 23.3811 26.7567 23.5703C27.2135 23.7596 27.604 24.08 27.8787 24.4911C28.1534 24.9022 28.3 25.3856 28.3 25.88C28.3 26.5431 28.0366 27.179 27.5678 27.6478C27.0989 28.1167 26.463 28.38 25.8 28.38V28.38Z" fill="#FBCA0C"/>
<path d="M14.1705 23.9999C13.7482 22.9701 12.9614 22.1317 11.9604 21.6449C10.9594 21.1581 9.81413 21.0569 8.74324 21.3606C7.67235 21.6643 6.75078 22.3517 6.15436 23.2915C5.55795 24.2314 5.32845 25.3579 5.50966 26.4562C5.69088 27.5545 6.27012 28.5476 7.13685 29.246C8.00358 29.9445 9.09713 30.2993 10.2088 30.2429C11.3205 30.1865 12.3725 29.7227 13.1641 28.9401C13.9557 28.1576 14.4314 27.1109 14.5005 25.9999H19.8005V25.7499C19.7807 25.1599 19.8481 24.5703 20.0005 23.9999H14.1705ZM10.0005 28.3799C9.50604 28.3799 9.02269 28.2333 8.61157 27.9586C8.20045 27.6839 7.88001 27.2935 7.69079 26.8366C7.50158 26.3798 7.45207 25.8772 7.54853 25.3922C7.64499 24.9073 7.8831 24.4618 8.23273 24.1122C8.58236 23.7625 9.02782 23.5244 9.51277 23.428C9.99772 23.3315 10.5004 23.381 10.9572 23.5702C11.414 23.7595 11.8045 24.0799 12.0792 24.491C12.3539 24.9021 12.5005 25.3855 12.5005 25.8799C12.5005 26.543 12.2371 27.1789 11.7683 27.6477C11.2994 28.1165 10.6635 28.3799 10.0005 28.3799V28.3799Z" fill="#FBCA0C"/>
</svg>
