<svg width="24" height="22" viewBox="0 0 24 22" fill="none" xmlns="http://www.w3.org/2000/svg">
<path d="M15.099 9.36652C15.099 9.15483 15.1659 8.94788 15.2911 8.77187C15.4164 8.59585 15.5944 8.45866 15.8027 8.37765C16.011 8.29664 16.2403 8.27544 16.4614 8.31674C16.6825 8.35804 16.8857 8.45998 17.0451 8.60967C17.2045 8.75936 17.3131 8.95008 17.3571 9.15771C17.4011 9.36533 17.3785 9.58054 17.2922 9.77612C17.2059 9.9717 17.0598 10.1389 16.8723 10.2565C16.6849 10.3741 16.4645 10.4369 16.239 10.4369C15.9369 10.4361 15.6474 10.3231 15.4338 10.1225C15.2202 9.92198 15.0998 9.65016 15.099 9.36652ZM23.08 6.69159V14.1512L19.865 15.1577L17.95 21.1403H11.68V18.9996H9.4V21.1403H3.13C3.13 21.1403 0.279999 12.0856 0.279999 8.83135C0.279605 8.05821 0.441522 7.29258 0.756491 6.57823C1.07146 5.86388 1.53331 5.21483 2.11562 4.66818C2.69794 4.12153 3.3893 3.68801 4.15018 3.3924C4.91107 3.09679 5.72655 2.94489 6.55 2.94538H12.25C12.7805 2.28052 13.4688 1.74089 14.2601 1.3693C15.0515 0.997713 15.9242 0.804397 16.809 0.804689C17.0336 0.804441 17.2561 0.845801 17.4637 0.926398C17.6713 1.007 17.8599 1.12525 18.0187 1.27438C18.1776 1.42352 18.3035 1.60061 18.3894 1.79551C18.4752 1.99041 18.5193 2.1993 18.519 2.41021C18.5209 2.62387 18.4742 2.83545 18.382 3.03082C18.2066 3.42538 18.084 3.83884 18.017 4.26172L20.605 6.69159H23.08ZM20.8 8.83229H19.66L15.67 5.08607C15.6721 4.39521 15.773 3.70774 15.97 3.04209C15.4237 3.17269 14.9199 3.42743 14.5031 3.78387C14.0864 4.14031 13.7693 4.58751 13.58 5.08607H6.55C5.49211 5.08707 4.47785 5.48208 3.72981 6.18441C2.98177 6.88675 2.56106 7.83903 2.56 8.83229C2.56 10.8443 3.951 15.9492 4.851 18.9996H7.119V16.8599H13.958V19.0006H16.25L18.017 13.4883L20.798 12.6104L20.8 8.83229Z" fill="#202020"/>
</svg>
