<svg width="26" height="26" viewBox="0 0 26 26" fill="none" xmlns="http://www.w3.org/2000/svg">
<g clip-path="url(#clip0_1_965)">
<path d="M4.99988 23.0002H21.0001V25.9988H4.99988V23.0002Z" fill="#202020"/>
<path d="M13.0006 14.9995C13.286 14.9985 13.5678 14.9364 13.8272 14.8174C14.0866 14.6984 14.3175 14.5252 14.5044 14.3096C14.6913 14.0939 14.8298 13.8407 14.9107 13.567C14.9915 13.2933 15.0128 13.0055 14.9732 12.7228C14.9336 12.4402 14.8339 12.1694 14.6808 11.9285C14.5277 11.6876 14.3249 11.4823 14.0859 11.3264C13.8469 11.1704 13.5772 11.0675 13.2951 11.0244C13.013 10.9814 12.7249 10.9992 12.4503 11.0768L8.28177 8.03125L8.03131 8.24996L11.0886 12.4185C11.0305 12.6066 11.0011 12.8025 11.0016 12.9994C11.0014 13.262 11.053 13.522 11.1534 13.7647C11.2538 14.0074 11.401 14.2279 11.5867 14.4136C11.7723 14.5994 11.9927 14.7467 12.2353 14.8473C12.478 14.9478 12.738 14.9995 13.0006 14.9995Z" fill="#202020"/>
<path d="M12.9994 2.06911e-07C10.5636 -0.000434352 8.17666 0.683643 6.11083 1.97422C4.045 3.2648 2.38342 5.10994 1.31557 7.29922C0.247714 9.48849 -0.183429 11.9338 0.0713042 14.3563C0.326037 16.7787 1.25639 19.0809 2.75628 21.0001H6.43092L6.68139 20.7497L8.06305 19.368L6.63082 17.937L5.25033 19.3139C4.01072 17.7978 3.24548 15.9499 3.05025 14.0013H4.99987V12.0023H3.05025C3.24503 10.0528 4.0103 8.20405 5.25033 6.68726L6.632 8.06187L8.06305 6.63082L6.68726 5.25033C8.2034 4.01072 10.0513 3.24547 11.9999 3.05025V4.99986H13.9989V3.05025C15.9484 3.24502 17.7971 4.01029 19.3139 5.25033L17.937 6.63082L19.368 8.06187L20.7497 6.68726C21.9893 8.2034 22.7545 10.0513 22.9498 11.9999H21.0001V13.9989H22.9498C22.755 15.9484 21.9897 17.7971 20.7497 19.3139L19.368 17.9393L17.937 19.3704L19.3139 20.7497L19.5644 21.0001H23.239C24.7387 19.0811 25.669 16.7793 25.9239 14.3571C26.1788 11.935 25.7479 9.48995 24.6805 7.3008C23.6131 5.11165 21.952 3.26647 19.8867 1.97563C17.8214 0.684784 15.4349 0.000226773 12.9994 2.06911e-07Z" fill="#202020"/>
</g>
<defs>
<clipPath id="clip0_1_965">
<rect width="26" height="26" fill="white"/>
</clipPath>
</defs>
</svg>
