<svg width="28" height="28" viewBox="0 0 28 28" fill="none" xmlns="http://www.w3.org/2000/svg">
<path d="M24.0625 5.03125H19.4688V3.28125C19.4688 3.16094 19.3703 3.0625 19.25 3.0625H17.7188C17.5984 3.0625 17.5 3.16094 17.5 3.28125V5.03125H10.5V3.28125C10.5 3.16094 10.4016 3.0625 10.2812 3.0625H8.75C8.62969 3.0625 8.53125 3.16094 8.53125 3.28125V5.03125H3.9375C3.45352 5.03125 3.0625 5.42227 3.0625 5.90625V24.0625C3.0625 24.5465 3.45352 24.9375 3.9375 24.9375H24.0625C24.5465 24.9375 24.9375 24.5465 24.9375 24.0625V5.90625C24.9375 5.42227 24.5465 5.03125 24.0625 5.03125ZM22.9688 22.9688H5.03125V12.5781H22.9688V22.9688ZM5.03125 10.7188V7H8.53125V8.3125C8.53125 8.43281 8.62969 8.53125 8.75 8.53125H10.2812C10.4016 8.53125 10.5 8.43281 10.5 8.3125V7H17.5V8.3125C17.5 8.43281 17.5984 8.53125 17.7188 8.53125H19.25C19.3703 8.53125 19.4688 8.43281 19.4688 8.3125V7H22.9688V10.7188H5.03125Z" fill="#202020"/>
</svg>
