<svg width="18" height="18" viewBox="0 0 18 18" fill="none" xmlns="http://www.w3.org/2000/svg">
<path d="M16.9062 1.95312H13.2969V0.578125C13.2969 0.483594 13.2195 0.40625 13.125 0.40625H11.9219C11.8273 0.40625 11.75 0.483594 11.75 0.578125V1.95312H6.25V0.578125C6.25 0.483594 6.17266 0.40625 6.07812 0.40625H4.875C4.78047 0.40625 4.70312 0.483594 4.70312 0.578125V1.95312H1.09375C0.713477 1.95312 0.40625 2.26035 0.40625 2.64062V16.9062C0.40625 17.2865 0.713477 17.5938 1.09375 17.5938H16.9062C17.2865 17.5938 17.5938 17.2865 17.5938 16.9062V2.64062C17.5938 2.26035 17.2865 1.95312 16.9062 1.95312ZM16.0469 16.0469H1.95312V7.88281H16.0469V16.0469ZM1.95312 6.42188V3.5H4.70312V4.53125C4.70312 4.62578 4.78047 4.70312 4.875 4.70312H6.07812C6.17266 4.70312 6.25 4.62578 6.25 4.53125V3.5H11.75V4.53125C11.75 4.62578 11.8273 4.70312 11.9219 4.70312H13.125C13.2195 4.70312 13.2969 4.62578 13.2969 4.53125V3.5H16.0469V6.42188H1.95312Z" fill="#535353"/>
</svg>
