<svg width="16" height="16" viewBox="0 0 16 16" fill="none" xmlns="http://www.w3.org/2000/svg">
<path d="M9.7625 7.99999L15.1375 2.63749C15.3729 2.40211 15.5051 2.08286 15.5051 1.74999C15.5051 1.41711 15.3729 1.09787 15.1375 0.862488C14.9021 0.627108 14.5829 0.494873 14.25 0.494873C13.9171 0.494873 13.5979 0.627108 13.3625 0.862488L8 6.23749L2.6375 0.862488C2.40212 0.627108 2.08288 0.494873 1.75 0.494873C1.41712 0.494873 1.09788 0.627108 0.8625 0.862488C0.62712 1.09787 0.494885 1.41711 0.494885 1.74999C0.494885 2.08286 0.62712 2.40211 0.8625 2.63749L6.2375 7.99999L0.8625 13.3625C0.745339 13.4787 0.652347 13.6169 0.588886 13.7693C0.525425 13.9216 0.492752 14.085 0.492752 14.25C0.492752 14.415 0.525425 14.5784 0.588886 14.7307C0.652347 14.883 0.745339 15.0213 0.8625 15.1375C0.978704 15.2546 1.11695 15.3476 1.26928 15.4111C1.4216 15.4746 1.58499 15.5072 1.75 15.5072C1.91501 15.5072 2.0784 15.4746 2.23072 15.4111C2.38305 15.3476 2.5213 15.2546 2.6375 15.1375L8 9.76249L13.3625 15.1375C13.4787 15.2546 13.617 15.3476 13.7693 15.4111C13.9216 15.4746 14.085 15.5072 14.25 15.5072C14.415 15.5072 14.5784 15.4746 14.7307 15.4111C14.883 15.3476 15.0213 15.2546 15.1375 15.1375C15.2547 15.0213 15.3477 14.883 15.4111 14.7307C15.4746 14.5784 15.5072 14.415 15.5072 14.25C15.5072 14.085 15.4746 13.9216 15.4111 13.7693C15.3477 13.6169 15.2547 13.4787 15.1375 13.3625L9.7625 7.99999Z" fill="#202020"/>
</svg>
