<svg width="35" height="24" viewBox="0 0 35 24" fill="none" xmlns="http://www.w3.org/2000/svg">
<path d="M20.1047 3.43111L18.5295 4.7812C17.4364 3.73237 16.0999 2.93564 14.6141 2.48501L15.2191 0.507172C17.0841 1.07387 18.7548 2.09106 20.1047 3.43111ZM21.0258 4.45718L19.455 5.80352C20.357 6.95264 21.007 8.17053 21.3201 9.64942L23.4255 9.78723C23.0809 7.79647 22.2361 5.9749 21.0258 4.45718ZM13.2661 2.17924L13.8763 0.184516C11.551 -0.22482 9.26215 0.0583921 7.22401 0.919994L8.08698 2.80083C9.70717 2.14752 11.4058 1.91469 13.2661 2.17924ZM15.0296 23.1613L14.1222 21.2624C8.73612 22.5957 2.61536 19.0838 2.06767 12.3217L0 12.3686C0.657617 21.3828 9.17793 24.9802 15.0296 23.1613ZM2.09282 10.9422C2.37583 7.73768 4.21743 4.97432 6.85289 3.41668L5.98691 1.52928C2.63047 3.43282 0.293604 6.93254 0.0150391 10.9894L2.09282 10.9422ZM14.5294 13.5091L35 11.9239V11.3725L14.2537 9.92511C15.0617 10.961 15.0527 12.178 14.5294 13.5092L14.5294 13.5091ZM13.9091 11.6482C13.9091 10.1681 12.2958 9.23796 11.012 9.97809C9.72836 10.7181 9.72836 12.5783 11.012 13.3184C12.2958 14.0585 13.9091 13.1284 13.9091 11.6482Z" fill="#FBCA0C"/>
</svg>
