<svg width="25" height="17" viewBox="0 0 25 17" fill="none" xmlns="http://www.w3.org/2000/svg">
<path d="M14.3605 2.45079L13.2354 3.41515C12.4546 2.66598 11.4999 2.09688 10.4386 1.77501L10.8708 0.362266C12.2029 0.767051 13.3963 1.49361 14.3605 2.45079ZM15.0184 3.1837L13.8964 4.14537C14.5407 4.96617 15.005 5.83609 15.2286 6.89244L16.7325 6.99088C16.4864 5.56891 15.883 4.26778 15.0184 3.1837V3.1837ZM9.47578 1.5566L9.91162 0.131797C8.25073 -0.160586 6.61582 0.0417086 5.16001 0.657138L5.77642 2.0006C6.93369 1.53394 8.14702 1.36764 9.47578 1.5566V1.5566ZM10.7354 16.5438L10.0873 15.1875C6.24009 16.1398 1.86812 13.6313 1.4769 8.80118L0 8.83473C0.469727 15.2734 6.55566 17.843 10.7354 16.5438ZM1.49487 7.81588C1.69702 5.52691 3.01245 3.55309 4.89492 2.44049L4.27637 1.09234C1.87891 2.45201 0.209717 4.95182 0.0107422 7.84957L1.49487 7.81588ZM10.3782 9.64937L25 8.51705V8.1232L10.1812 7.08937C10.7583 7.82926 10.7519 8.69859 10.3781 9.64942L10.3782 9.64937ZM9.93506 8.32018C9.93506 7.2629 8.78271 6.59854 7.86572 7.12721C6.94883 7.65582 6.94883 8.98453 7.86572 9.51314C8.78271 10.0418 9.93506 9.3774 9.93506 8.32018Z" fill="#535353"/>
</svg>
