<svg width="258" height="178" viewBox="0 0 258 178" fill="none" xmlns="http://www.w3.org/2000/svg">
<path d="M7.10092 122.328C7.85253 91.6442 20.6999 62.5004 42.844 41.2467C66.0637 18.9333 97.0175 6.47117 129.221 6.47117C161.424 6.47117 192.378 18.9333 215.597 41.2467C237.741 62.5004 250.589 91.6442 251.34 122.328H258C257.249 89.917 243.697 59.121 220.308 36.6714C195.822 13.1415 163.181 0 129.222 0C95.2628 0 62.6215 13.1415 38.1358 36.6714C14.7462 59.121 1.19476 89.917 0.443359 122.328H7.10092Z" fill="#FBCA0C"/>
<path d="M130.212 14.593H128.231V36.2918H130.212V14.593Z" fill="#202020"/>
<path d="M227.226 68.3144L208.433 79.1648L209.424 80.8804L228.217 70.03L227.226 68.3144Z" fill="#202020"/>
<path d="M185.941 29.9072L175.075 48.6946L176.79 49.6864L187.656 30.899L185.941 29.9072Z" fill="#202020"/>
<path d="M31.214 68.3099L30.2245 70.0237L49.0178 80.8744L50.0073 79.1606L31.214 68.3099Z" fill="#202020"/>
<path d="M72.5073 29.9039L70.7916 30.8943L81.6421 49.6902L83.3578 48.6997L72.5073 29.9039Z" fill="#202020"/>
<path d="M119.658 15.1589L117.688 15.366L118.556 23.6303L120.526 23.4232L119.658 15.1589Z" fill="#202020"/>
<path d="M107.003 17.0577L105.063 17.4695L106.789 25.6003L108.729 25.1885L107.003 17.0577Z" fill="#202020"/>
<path d="M94.6175 20.2701L92.7332 20.8816L95.2989 28.7876L97.1832 28.1761L94.6175 20.2701Z" fill="#202020"/>
<path d="M82.6332 24.7602L80.823 25.5649L84.1997 33.1601L86.0099 32.3553L82.6332 24.7602Z" fill="#202020"/>
<path d="M138.788 15.1579L137.912 23.4214L139.882 23.6303L140.758 15.3668L138.788 15.1579Z" fill="#202020"/>
<path d="M151.435 17.0555L149.713 25.1873L151.654 25.5979L153.375 17.4661L151.435 17.0555Z" fill="#202020"/>
<path d="M163.827 20.2676L161.261 28.1736L163.146 28.7851L165.711 20.8791L163.827 20.2676Z" fill="#202020"/>
<path d="M175.808 24.7567L172.431 32.3516L174.243 33.1574L177.62 25.5625L175.808 24.7567Z" fill="#202020"/>
<path d="M235.266 115.183L235.055 113.212L243.32 112.344L243.531 114.315L235.266 115.183Z" fill="#202020"/>
<path d="M241.224 99.7255L233.091 101.445L233.501 103.383L241.633 101.664L241.224 99.7255Z" fill="#202020"/>
<path d="M237.81 87.3907L229.903 89.9563L230.515 91.8406L238.421 89.275L237.81 87.3907Z" fill="#202020"/>
<path d="M233.129 75.4825L225.532 78.856L226.336 80.6665L233.933 77.293L233.129 75.4825Z" fill="#202020"/>
<path d="M66.5137 33.6426L64.8997 34.7913L69.7178 41.5617L71.3318 40.4131L66.5137 33.6426Z" fill="#202020"/>
<path d="M56.4254 41.5149L54.9385 42.8271L60.4385 49.0592L61.9254 47.7469L56.4254 41.5149Z" fill="#202020"/>
<path d="M47.2179 50.4021L45.8767 51.8601L51.9928 57.4859L53.3339 56.0278L47.2179 50.4021Z" fill="#202020"/>
<path d="M38.9879 60.1998L37.8069 61.7903L44.4803 66.7455L45.6613 65.155L38.9879 60.1998Z" fill="#202020"/>
<path d="M220.87 61.9077L214.101 66.731L215.251 68.3444L222.02 63.5211L220.87 61.9077Z" fill="#202020"/>
<path d="M212.834 51.949L206.603 57.4509L207.915 58.9359L214.145 53.434L212.834 51.949Z" fill="#202020"/>
<path d="M203.797 42.8864L198.179 49.0107L199.639 50.3499L205.257 44.2256L203.797 42.8864Z" fill="#202020"/>
<path d="M193.871 34.819L188.918 41.4915L190.509 42.6722L195.462 35.9998L193.871 34.819Z" fill="#202020"/>
<path d="M23.1741 115.186L14.9086 114.318L15.1193 112.347L23.3849 113.216L23.1741 115.186Z" fill="#202020"/>
<path d="M17.2203 99.7242L16.8082 101.662L24.9383 103.391L25.3504 101.453L17.2203 99.7242Z" fill="#202020"/>
<path d="M20.6325 87.3919L20.0209 89.2761L27.9268 91.8423L28.5384 89.958L20.6325 87.3919Z" fill="#202020"/>
<path d="M25.3143 75.4827L24.5096 77.293L32.1031 80.6684L32.9078 78.8581L25.3143 75.4827Z" fill="#202020"/>
<path d="M129.674 104.887C128.521 104.887 127.393 105.228 126.433 105.869C125.473 106.51 124.725 107.421 124.283 108.487C123.842 109.553 123.726 110.726 123.951 111.857C124.175 112.989 124.731 114.029 125.547 114.845C126.362 115.661 127.402 116.217 128.533 116.442C129.665 116.667 130.838 116.552 131.904 116.11C132.97 115.669 133.881 114.921 134.523 113.962C135.164 113.002 135.506 111.874 135.506 110.721C135.506 109.174 134.891 107.69 133.798 106.596C132.704 105.502 131.221 104.888 129.674 104.887ZM129.674 113.496C129.125 113.496 128.588 113.333 128.131 113.028C127.674 112.723 127.318 112.289 127.108 111.781C126.898 111.274 126.843 110.715 126.95 110.177C127.057 109.638 127.322 109.143 127.71 108.754C128.099 108.366 128.594 108.101 129.133 107.994C129.671 107.887 130.23 107.942 130.737 108.152C131.245 108.363 131.679 108.718 131.984 109.175C132.289 109.632 132.452 110.169 132.452 110.718C132.452 111.455 132.159 112.162 131.638 112.683C131.118 113.203 130.411 113.496 129.674 113.496Z" fill="#202020"/>
<path d="M133.666 107.153L158.646 49.3442L129.08 104.896C129.966 104.898 130.84 105.102 131.635 105.493C132.429 105.885 133.124 106.452 133.666 107.153Z" fill="#FF2828"/>
<path d="M124.236 113.989L118.512 124.737H122.539L124.622 128.069L129.614 116.514C129.433 116.531 129.252 116.541 129.066 116.541C128.114 116.543 127.175 116.311 126.333 115.867C125.491 115.422 124.771 114.777 124.236 113.989Z" fill="#FF2828"/>
<path d="M146.182 174.64C146.187 174.945 146.132 175.248 146.019 175.532C145.907 175.816 145.739 176.075 145.526 176.294C145.313 176.513 145.059 176.687 144.779 176.808C144.498 176.928 144.196 176.992 143.891 176.996L110.205 177.474C109.9 177.479 109.597 177.424 109.313 177.311C109.029 177.199 108.77 177.032 108.552 176.819C108.333 176.606 108.158 176.353 108.037 176.072C107.917 175.792 107.853 175.491 107.849 175.185L107.771 169.86C107.766 169.555 107.821 169.251 107.933 168.968C108.046 168.684 108.213 168.425 108.426 168.206C108.639 167.987 108.892 167.813 109.173 167.692C109.453 167.571 109.754 167.507 110.06 167.504L143.746 167.021C144.362 167.013 144.956 167.249 145.398 167.678C145.84 168.107 146.095 168.694 146.106 169.31L146.182 174.64Z" fill="url(#paint0_linear_1_3629)"/>
<path d="M145.71 165.738C145.181 165.741 144.656 165.65 144.159 165.468C139.004 163.639 135.434 152.368 135.044 151.091L137.268 150.412C138.229 153.573 141.502 162.06 144.935 163.283C145.265 163.405 145.621 163.442 145.969 163.388C146.318 163.335 146.646 163.193 146.924 162.977C147.262 162.802 147.561 162.56 147.803 162.266C148.045 161.973 148.225 161.633 148.332 161.268C148.501 160.13 147.247 158.593 146.033 157.105C144.408 155.12 142.564 152.863 143.158 150.362C144.364 145.259 144.899 142.022 142.303 139.94C142.186 139.851 142.062 139.763 141.93 139.674L143.245 137.757C147.788 140.874 146.558 146.115 145.455 150.732C145.093 152.281 146.484 153.984 147.835 155.634C149.371 157.516 150.952 159.453 150.629 161.601C150.487 162.29 150.2 162.94 149.786 163.508C149.372 164.077 148.841 164.55 148.229 164.897C147.489 165.416 146.614 165.708 145.71 165.738Z" fill="url(#paint1_linear_1_3629)"/>
<path d="M141.926 139.679L139.764 137.213C140.969 136.998 142.21 137.103 143.362 137.516C144.514 137.93 145.539 138.637 146.333 139.569C145.977 139.732 145.682 140.003 145.491 140.344C145.299 140.685 145.221 141.077 145.266 141.466C144.683 141.333 143.667 141.055 143.667 141.055L141.926 139.679Z" fill="url(#paint2_linear_1_3629)"/>
<path d="M116.174 134.448C115.559 134.46 114.973 134.714 114.545 135.155C114.116 135.596 113.879 136.189 113.885 136.804L114.359 170.102C114.369 170.719 114.623 171.306 115.064 171.736C115.506 172.166 116.099 172.404 116.716 172.398L136.851 172.105C137.156 172.102 137.457 172.038 137.737 171.919C138.018 171.799 138.272 171.625 138.485 171.407C138.699 171.189 138.867 170.931 138.98 170.648C139.093 170.365 139.15 170.062 139.146 169.757L138.671 136.458C138.668 136.153 138.604 135.852 138.483 135.572C138.362 135.291 138.188 135.037 137.969 134.825C137.75 134.612 137.491 134.445 137.207 134.332C136.924 134.22 136.62 134.165 136.315 134.17L116.174 134.448ZM136.258 143.801C136.264 144.416 136.027 145.009 135.598 145.45C135.169 145.891 134.583 146.146 133.968 146.157L119.835 146.368C119.219 146.374 118.625 146.137 118.183 145.708C117.741 145.279 117.486 144.693 117.474 144.077L117.417 139.771C117.412 139.466 117.468 139.163 117.58 138.879C117.692 138.596 117.86 138.337 118.072 138.118C118.285 137.899 118.539 137.724 118.819 137.604C119.1 137.483 119.401 137.419 119.706 137.415L133.843 137.205C134.148 137.2 134.451 137.256 134.734 137.368C135.017 137.481 135.275 137.649 135.494 137.861C135.712 138.074 135.887 138.327 136.007 138.607C136.127 138.887 136.191 139.188 136.195 139.493L136.258 143.801Z" fill="url(#paint3_linear_1_3629)"/>
<defs>
<linearGradient id="paint0_linear_1_3629" x1="123.212" y1="156.86" x2="123.212" y2="146.887" gradientUnits="userSpaceOnUse">
<stop stop-color="#202020"/>
<stop offset="0.323" stop-color="#E0E0E0"/>
<stop offset="0.719" stop-color="#F2F2F2"/>
<stop offset="1" stop-color="#F9F9F9"/>
</linearGradient>
<linearGradient id="paint1_linear_1_3629" x1="141.327" y1="110.559" x2="141.327" y2="83.8647" gradientUnits="userSpaceOnUse">
<stop stop-color="#202020"/>
<stop offset="0.323" stop-color="#E0E0E0"/>
<stop offset="0.719" stop-color="#F2F2F2"/>
<stop offset="1" stop-color="#F9F9F9"/>
</linearGradient>
<linearGradient id="paint2_linear_1_3629" x1="142.404" y1="132.865" x2="142.404" y2="128.704" gradientUnits="userSpaceOnUse">
<stop stop-color="#202020"/>
<stop offset="0.323" stop-color="#E0E0E0"/>
<stop offset="0.719" stop-color="#F2F2F2"/>
<stop offset="1" stop-color="#F9F9F9"/>
</linearGradient>
<linearGradient id="paint3_linear_1_3629" x1="124.04" y1="97.0116" x2="124.04" y2="60.5418" gradientUnits="userSpaceOnUse">
<stop stop-color="#202020"/>
<stop offset="0.323" stop-color="#E0E0E0"/>
<stop offset="0.719" stop-color="#F2F2F2"/>
<stop offset="1" stop-color="#F9F9F9"/>
</linearGradient>
</defs>
</svg>
