<svg width="23" height="23" viewBox="0 0 23 23" fill="none" xmlns="http://www.w3.org/2000/svg">
<path d="M4.92857 16.4286H1.64286V21.3571H4.92857V16.4286ZM13.1429 9.85714H9.85714V21.3571H13.1429V9.85714ZM21.3571 1.64286V21.3571H18.0714V1.64286H21.3571ZM18.0714 0C17.6357 0 17.2178 0.173086 16.9098 0.481182C16.6017 0.789277 16.4286 1.20714 16.4286 1.64286V21.3571C16.4286 21.7929 16.6017 22.2107 16.9098 22.5188C17.2178 22.8269 17.6357 23 18.0714 23H21.3571C21.7929 23 22.2107 22.8269 22.5188 22.5188C22.8269 22.2107 23 21.7929 23 21.3571V1.64286C23 1.20714 22.8269 0.789277 22.5188 0.481182C22.2107 0.173086 21.7929 0 21.3571 0H18.0714ZM8.21429 9.85714C8.21429 9.42143 8.38737 9.00356 8.69547 8.69547C9.00356 8.38737 9.42143 8.21429 9.85714 8.21429H13.1429C13.5786 8.21429 13.9964 8.38737 14.3045 8.69547C14.6126 9.00356 14.7857 9.42143 14.7857 9.85714V21.3571C14.7857 21.7929 14.6126 22.2107 14.3045 22.5188C13.9964 22.8269 13.5786 23 13.1429 23H9.85714C9.42143 23 9.00356 22.8269 8.69547 22.5188C8.38737 22.2107 8.21429 21.7929 8.21429 21.3571V9.85714ZM0 16.4286C0 15.9929 0.173086 15.575 0.481182 15.2669C0.789277 14.9588 1.20714 14.7857 1.64286 14.7857H4.92857C5.36428 14.7857 5.78215 14.9588 6.09025 15.2669C6.39834 15.575 6.57143 15.9929 6.57143 16.4286V21.3571C6.57143 21.7929 6.39834 22.2107 6.09025 22.5188C5.78215 22.8269 5.36428 23 4.92857 23H1.64286C1.20714 23 0.789277 22.8269 0.481182 22.5188C0.173086 22.2107 0 21.7929 0 21.3571V16.4286Z" fill="#202020"/>
</svg>
