<svg width="32" height="32" viewBox="0 0 32 32" fill="none" xmlns="http://www.w3.org/2000/svg">
<g clip-path="url(#clip0_1_2374)">
<path d="M0.00402832 6C0.00402832 4.93913 0.425456 3.92172 1.1756 3.17157C1.92575 2.42143 2.94316 2 4.00403 2H28.004C29.0649 2 30.0823 2.42143 30.8325 3.17157C31.5826 3.92172 32.004 4.93913 32.004 6V26C32.004 27.0609 31.5826 28.0783 30.8325 28.8284C30.0823 29.5786 29.0649 30 28.004 30H4.00403C2.94316 30 1.92575 29.5786 1.1756 28.8284C0.425456 28.0783 0.00402832 27.0609 0.00402832 26V6ZM2.00403 24V26C2.00403 26.5304 2.21474 27.0391 2.58981 27.4142C2.96489 27.7893 3.4736 28 4.00403 28H28.004C28.5345 28 29.0432 27.7893 29.4182 27.4142C29.7933 27.0391 30.004 26.5304 30.004 26V19L22.45 15.106C22.2625 15.012 22.0501 14.9795 21.843 15.0128C21.6359 15.0462 21.4446 15.1439 21.296 15.292L13.876 22.712L8.55603 19.168C8.36395 19.0401 8.13355 18.9826 7.90391 19.0052C7.67426 19.0278 7.45949 19.1291 7.29603 19.292L2.00403 24ZM12.004 11C12.004 10.2044 11.688 9.44129 11.1253 8.87868C10.5627 8.31607 9.79968 8 9.00403 8C8.20838 8 7.44532 8.31607 6.88271 8.87868C6.3201 9.44129 6.00403 10.2044 6.00403 11C6.00403 11.7956 6.3201 12.5587 6.88271 13.1213C7.44532 13.6839 8.20838 14 9.00403 14C9.79968 14 10.5627 13.6839 11.1253 13.1213C11.688 12.5587 12.004 11.7956 12.004 11Z" fill="#686A6A"/>
</g>
<defs>
<clipPath id="clip0_1_2374">
<rect width="32" height="32" fill="white"/>
</clipPath>
</defs>
</svg>
