<svg width="15" height="21" viewBox="0 0 15 21" fill="none" xmlns="http://www.w3.org/2000/svg">
<path d="M6.72922 20.5763C1.05352 11.9368 0 11.0501 0 7.875C0 3.52574 3.35785 0 7.5 0C11.6421 0 15 3.52574 15 7.875C15 11.0501 13.9465 11.9368 8.27078 20.5763C7.89832 21.1413 7.10164 21.1412 6.72922 20.5763ZM7.5 11.1562C9.2259 11.1562 10.625 9.68719 10.625 7.875C10.625 6.06281 9.2259 4.59375 7.5 4.59375C5.7741 4.59375 4.375 6.06281 4.375 7.875C4.375 9.68719 5.7741 11.1562 7.5 11.1562Z" fill="#FF2626"/>
</svg>
