<svg width="23" height="24" viewBox="0 0 23 24" fill="none" xmlns="http://www.w3.org/2000/svg">
<path d="M11.1664 22.5275C12.8705 22.5275 13.8025 21.3218 13.8025 19.6228H8.52106C8.52106 21.3218 9.45644 22.5275 11.1664 22.5275Z" stroke="#202020"/>
<path d="M21.4218 16.8385C20.4115 15.7264 18.4212 15.0705 18.4212 10.0922C18.4212 4.97916 15.7161 2.92402 13.1937 2.43065C12.9571 2.38097 12.7862 2.3153 12.7862 2.10735V1.94822C12.7477 1.55949 12.559 1.20115 12.2602 0.94953C11.9614 0.697911 11.5761 0.572904 11.1865 0.601138C10.7967 0.571809 10.4109 0.696421 10.1118 0.948249C9.81277 1.20008 9.62432 1.55906 9.58688 1.94822V2.10735C9.58688 2.31025 9.41849 2.38097 9.17939 2.43065C6.6536 2.92907 3.95186 4.97916 3.95186 10.0922C3.95186 15.0739 1.96239 15.7205 0.951232 16.8385C0.301264 17.5567 0.918397 18.5813 1.99522 18.5813H20.3804C21.4513 18.5813 22.0684 17.5508 21.4218 16.8385Z" stroke="#202020"/>
</svg>
