<svg width="25" height="25" viewBox="0 0 25 25" fill="none" xmlns="http://www.w3.org/2000/svg">
<path d="M3.75 0.46875C1.95078 0.46875 0.46875 1.95078 0.46875 3.75V24.5312H15.7812V16.875H17.9688V21.25C17.9688 23.0492 19.4508 24.5312 21.25 24.5312C23.0492 24.5312 24.5312 23.0492 24.5312 21.25V10.1069C24.5312 9.23625 24.1889 8.43344 23.5742 7.81766L18.4128 2.65625L16.875 4.19406L19.9856 7.30469C18.8109 7.80453 17.9688 8.96281 17.9688 10.3125C17.9688 12.1117 19.4508 13.5938 21.25 13.5938C21.6237 13.5891 21.9938 13.5195 22.3438 13.3881V21.25C22.3438 21.8691 21.8691 22.3438 21.25 22.3438C20.6309 22.3438 20.1562 21.8691 20.1562 21.25V16.875C20.1562 15.6784 19.1653 14.6875 17.9688 14.6875H15.7812V3.75C15.7812 1.95078 14.2992 0.46875 12.5 0.46875H3.75ZM3.75 2.65625H12.5C13.1191 2.65625 13.5938 3.13094 13.5938 3.75V8.125H2.65625V3.75C2.65625 3.13094 3.13094 2.65625 3.75 2.65625ZM21.25 9.21875C21.8658 9.21875 22.3438 9.69781 22.3438 10.3125C22.3438 10.9283 21.8647 11.4062 21.25 11.4062C20.6342 11.4062 20.1562 10.9272 20.1562 10.3125C20.1562 9.69672 20.6353 9.21875 21.25 9.21875ZM2.65625 10.3125H13.5938V22.3438H2.65625V10.3125Z" fill="#202020"/>
</svg>
