<svg width="50" height="44" viewBox="0 0 50 44" fill="none" xmlns="http://www.w3.org/2000/svg">
<g clip-path="url(#clip0_1_2115)">
<path d="M0.69436 43.9767C0.872231 44.0225 1.0612 43.9972 1.22031 43.9061C1.37942 43.8149 1.49585 43.6654 1.54436 43.4899C2.97492 38.2058 8.7888 36.8363 12.2638 36.0168C13.1346 35.8119 13.8221 35.6497 14.2694 35.4585C18.2277 33.7576 19.518 31.0214 19.9041 29.0249C19.927 28.9061 19.9179 28.7834 19.8777 28.6693C19.8375 28.5551 19.7675 28.4534 19.6749 28.3745C17.6138 26.6131 15.8749 23.969 14.7777 20.9275C14.7467 20.8403 14.6981 20.7603 14.6346 20.6924C13.1832 19.1304 12.3499 17.479 12.3499 16.1632C12.3499 15.3945 12.643 14.8789 13.3027 14.4898C13.4015 14.4313 13.4841 14.3494 13.543 14.2515C13.6019 14.1535 13.6353 14.0427 13.6402 13.9288C13.9471 6.92453 18.986 1.41078 25.1666 1.37503L25.3152 1.38465C31.5263 1.4699 36.5333 7.1019 36.7124 14.2052C36.7149 14.3022 36.7383 14.3977 36.7809 14.4852C36.8235 14.5726 36.8844 14.6501 36.9596 14.7125C37.3944 15.0769 37.5971 15.5389 37.5971 16.1659C37.5971 17.2673 37.0041 18.6217 35.9291 19.9774C35.8779 20.0426 35.8384 20.1161 35.8124 20.1947C34.7013 23.6817 32.7069 26.7603 30.343 28.644C30.245 28.7223 30.1704 28.8254 30.1268 28.9423C30.0833 29.0593 30.0726 29.1857 30.0958 29.3082C30.4819 31.3033 31.7721 34.0382 35.7305 35.7418C36.1985 35.9425 36.9249 36.0993 37.8458 36.2959C41.286 37.0329 47.043 38.269 48.4555 43.4899C48.4792 43.5771 48.52 43.6589 48.5756 43.7304C48.6312 43.802 48.7006 43.8621 48.7796 43.9072C48.8587 43.9522 48.9459 43.9814 49.0364 43.9931C49.1269 44.0048 49.2188 43.9987 49.3069 43.9753C49.395 43.9518 49.4775 43.9114 49.5498 43.8563C49.6222 43.8013 49.6828 43.7326 49.7283 43.6544C49.7739 43.5761 49.8034 43.4897 49.8152 43.4002C49.827 43.3106 49.8209 43.2196 49.7971 43.1324C48.1652 37.1003 41.643 35.7019 38.1402 34.9511C37.3277 34.7765 36.6263 34.6267 36.2846 34.4781C33.7013 33.3671 32.1096 31.6745 31.5471 29.4388C33.9458 27.3997 35.9527 24.2537 37.0999 20.7254C38.318 19.1579 38.9874 17.5436 38.9874 16.1645C38.9874 15.2446 38.6874 14.4774 38.093 13.8779C37.7624 6.1724 32.2082 0.104525 25.3152 0.00690039L25.1082 0.00415039C18.3402 0.0399004 12.7624 5.94828 12.2749 13.5204C11.4055 14.1529 10.9638 15.0398 10.9638 16.1659C10.9638 17.7925 11.893 19.7381 13.5194 21.5229C14.643 24.5795 16.3846 27.2649 18.4583 29.1445C17.8985 31.3885 16.3055 33.0867 13.7166 34.199C13.3819 34.3434 12.7152 34.5015 11.943 34.683C8.4138 35.5135 1.84714 37.0604 0.202693 43.1352C0.155202 43.3113 0.180319 43.4989 0.272521 43.6567C0.364722 43.8145 0.516458 43.9296 0.69436 43.9767Z" fill="#535353"/>
</g>
<defs>
<clipPath id="clip0_1_2115">
<rect width="50" height="44" fill="white"/>
</clipPath>
</defs>
</svg>
