<svg width="10" height="16" viewBox="0 0 10 16" fill="none" xmlns="http://www.w3.org/2000/svg">
<path d="M6.38333 3.83333C6.14741 3.33457 5.77463 2.9131 5.30842 2.61803C4.8422 2.32296 4.30175 2.16643 3.75 2.16667H0V0.5H10V2.16667H7.28333C7.68748 2.6555 7.98546 3.22309 8.15833 3.83333H10V5.5H8.31667C8.21268 6.63911 7.68652 7.69816 6.84154 8.46913C5.99656 9.24009 4.89384 9.66724 3.75 9.66667H3.14167L8.75 15.5H6.44167L0.833333 9.66667V8H3.75C4.45111 8.00039 5.1288 7.74773 5.65852 7.28843C6.18823 6.82914 6.53438 6.19409 6.63333 5.5H0V3.83333H6.38333Z" fill="black"/>
</svg>
