<svg width="24" height="23" viewBox="0 0 24 23" fill="none" xmlns="http://www.w3.org/2000/svg">
<path d="M8.19477 7.43336L7.67467 7.50919L1.33352 8.43367L1.33279 8.43377C1.01694 8.47958 0.887609 8.87249 1.11864 9.09745L1.11893 9.09772L5.7066 13.5682L6.08333 13.9353L5.99426 14.4537L4.90931 20.7682C4.9093 20.7682 4.9093 20.7682 4.9093 20.7682C4.85505 21.0856 5.19056 21.3264 5.46911 21.1787L5.47225 21.177L11.145 18.1952L11.6103 17.9507L12.0755 18.1952L17.7483 21.177L17.7484 21.1771C18.0339 21.3272 18.3644 21.0795 18.3112 20.7682C18.3112 20.7682 18.3112 20.7682 18.3112 20.7682L17.2263 14.4537L17.1372 13.9353L17.5139 13.5682L22.1016 9.09772L22.1019 9.09745C22.3329 8.87249 22.2036 8.47958 21.8877 8.43377L21.887 8.43367L15.5459 7.50919L15.0258 7.43336L14.7933 6.96198L11.96 1.21729C11.9599 1.21709 11.9598 1.2169 11.9597 1.2167C11.8139 0.923839 11.4017 0.932121 11.2615 1.21545L8.19477 7.43336ZM8.19477 7.43336L8.42725 6.96198L11.2613 1.21583L8.19477 7.43336Z" stroke="#FBCA0C" stroke-width="2"/>
</svg>
