<svg width="24" height="24" viewBox="0 0 24 24" fill="none" xmlns="http://www.w3.org/2000/svg">
<path d="M19 7L10.278 15.7229L5 10.4449" stroke="white" stroke-width="1.86667" stroke-miterlimit="10" stroke-linecap="round" stroke-linejoin="round"/>
<path fill-rule="evenodd" clip-rule="evenodd" d="M12 0C12.4349 0 12.8644 0.0231354 13.2873 0.0682425C13.6811 0.110235 13.9042 0.526787 13.7442 0.888975V0.888975C13.6338 1.13876 13.3708 1.2827 13.0991 1.25524C12.7377 1.21871 12.371 1.2 12 1.2C6.03532 1.2 1.2 6.03532 1.2 12C1.2 14.8575 2.30978 17.4559 4.12185 19.3875C4.3069 19.5848 4.35338 19.8776 4.22594 20.1162V20.1162C4.03797 20.468 3.5677 20.5472 3.29314 20.2578C1.25215 18.1065 0 15.1995 0 12C0 5.37258 5.37258 0 12 0ZM17.216 1.82105C17.0766 2.13657 16.7005 2.26765 16.3853 2.12745C16.3441 2.10912 16.3028 2.09105 16.2613 2.07322C15.9428 1.9363 15.7839 1.56822 15.9241 1.25107V1.25107C16.0516 0.962282 16.3825 0.820927 16.6732 0.943977C16.7609 0.981086 16.848 1.01921 16.9347 1.05833C17.224 1.18903 17.3443 1.53062 17.216 1.82105V1.82105ZM18.9633 3.16221C18.8521 3.41385 18.925 3.70747 19.1315 3.88921C21.3807 5.86842 22.8 8.76846 22.8 12C22.8 14.4922 21.9559 16.7872 20.5379 18.6147C20.3822 18.8154 20.3546 19.0897 20.4784 19.3116V19.3116C20.6823 19.6774 21.1849 19.7342 21.4435 19.4049C23.045 17.3654 24 14.7942 24 12C24 8.38531 22.4018 5.1439 19.8734 2.94388C19.5766 2.68559 19.1223 2.80228 18.9633 3.16221V3.16221ZM14.0185 23.1099C14.0204 22.8201 14.2276 22.574 14.5095 22.5069C14.6888 22.4643 14.8664 22.4171 15.0421 22.3656C15.3497 22.2755 15.6819 22.423 15.8034 22.7196V22.7196C15.9335 23.037 15.7726 23.4002 15.444 23.4985C15.2062 23.5696 14.9653 23.6335 14.7215 23.6901C14.3545 23.7752 14.016 23.4866 14.0185 23.1099V23.1099ZM12.0203 22.8204C12.0204 22.8092 12.0113 22.8 12 22.8V22.8C11.4642 22.8 10.9375 22.761 10.4226 22.6856C10.1301 22.6428 9.84178 22.8021 9.73785 23.0788V23.0788C9.60769 23.4254 9.81639 23.8076 10.1824 23.8632C10.7751 23.9533 11.3821 24 12 24V24C12.007 24 12.0127 23.9944 12.0127 23.9874L12.0203 22.8204ZM18.4494 22.1213C18.1435 22.3166 17.7421 22.1761 17.6045 21.8402V21.8402C17.49 21.5608 17.6005 21.2412 17.8542 21.0773C17.9812 20.9952 18.1064 20.9105 18.2297 20.8233C18.5311 20.61 18.9579 20.6915 19.1377 21.014V21.014C19.2804 21.2699 19.2163 21.593 18.9781 21.7636C18.8052 21.8874 18.629 22.0067 18.4494 22.1213ZM7.78744 22.5836C7.90239 22.2775 7.75069 21.9373 7.45422 21.7996C7.15564 21.6608 6.86446 21.5089 6.58144 21.3444C6.27659 21.1672 5.87919 21.266 5.71305 21.577V21.577C5.56713 21.8501 5.65343 22.191 5.92029 22.3481C6.27219 22.5553 6.63558 22.745 7.00929 22.9162C7.31498 23.0562 7.66922 22.8983 7.78744 22.5836V22.5836Z" fill="white"/>
</svg>
