<svg width="36" height="38" viewBox="0 0 36 38" fill="none" xmlns="http://www.w3.org/2000/svg">
<g clip-path="url(#clip0_19_7)">
<path d="M20.0833 3.33333H11.3333C7.83298 3.33333 6.08281 3.33333 4.74588 4.01454C3.56985 4.61375 2.61373 5.56987 2.01452 6.74589C1.33331 8.08283 1.33331 9.83299 1.33331 13.3333V26.6667C1.33331 30.1671 1.33331 31.9171 2.01452 33.2542C2.61373 34.4302 3.56985 35.3862 4.74588 35.9854C6.08281 36.6667 7.83298 36.6667 11.3333 36.6667H24.6666C28.1671 36.6667 29.9171 36.6667 31.2541 35.9854C32.4302 35.3862 33.3862 34.4302 33.9854 33.2542C34.6666 31.9171 34.6666 30.1671 34.6666 26.6667V17.9167" stroke="#1AB6DF" stroke-linecap="round" stroke-linejoin="round"/>
<path d="M1.33331 28.3333L10.2768 19.3898C11.0904 18.5762 12.4095 18.5762 13.2231 19.3898L20.0833 26.25M20.0833 26.25L25.9019 20.4315C26.7154 19.6179 28.0346 19.6179 28.8481 20.4315L34.6666 26.25M20.0833 26.25L24.7708 30.9375" stroke="#1AB6DF" stroke-linecap="round" stroke-linejoin="round"/>
<path d="M30.5 11.6667V1.25M30.5 1.25L26.3333 5.41667M30.5 1.25L34.6666 5.41667" stroke="#1AB6DF" stroke-linecap="round" stroke-linejoin="round"/>
</g>
<defs>
<clipPath id="clip0_19_7">
<rect width="36" height="38" fill="white"/>
</clipPath>
</defs>
</svg>
