<?xml version="1.0" encoding="utf-8"?><!-- Uploaded to: SVG Repo, www.svgrepo.com, Generator: SVG Repo Mixer Tools -->
<svg width="800px" height="800px" viewBox="0 0 24 24" fill="none" xmlns="http://www.w3.org/2000/svg">
<path d="M12 3C14.7614 3 17 5.23858 17 8V9M7 9V8C7 6.87418 7.37209 5.83526 8 4.99951M7 9C4.79086 9 3 10.7909 3 13C3 14.4806 3.8044 15.7733 5 16.4649M7 9C7.43285 9 7.84965 9.06875 8.24006 9.19594M19 16.4649C20.1956 15.7733 21 14.4806 21 13C21 11.8053 20.4762 10.7329 19.6458 10M12 21V11L16 15M8 15L10 13" stroke="#001A72" stroke-width="1.5" stroke-linecap="round" stroke-linejoin="round"/>
</svg>