<svg width="24" height="24" viewBox="0 0 24 24" fill="none" xmlns="http://www.w3.org/2000/svg">
<path fill-rule="evenodd" clip-rule="evenodd" d="M8.23256 1.22095H19.9535C20.2833 1.22095 20.6099 1.28663 20.9146 1.41426C21.2194 1.54188 21.4963 1.72894 21.7295 1.96476C21.9627 2.20058 22.1477 2.48053 22.2739 2.78864C22.4002 3.09675 22.4651 3.42699 22.4651 3.76048V15.6116C22.4651 16.2852 22.2005 16.9311 21.7295 17.4074C21.2585 17.8836 20.6196 18.1512 19.9535 18.1512H8.23256C7.90273 18.1512 7.57613 18.0855 7.2714 17.9579C6.96668 17.8302 6.6898 17.6432 6.45657 17.4074C5.98555 16.9311 5.72093 16.2852 5.72093 15.6116V3.76048C5.72093 3.42699 5.7859 3.09675 5.91212 2.78864C6.03834 2.48053 6.22334 2.20058 6.45657 1.96476C6.92759 1.4885 7.56643 1.22095 8.23256 1.22095ZM14.093 4.39537C14.3706 4.39537 14.6368 4.50685 14.833 4.70529C15.0293 4.90373 15.1395 5.17287 15.1395 5.4535V8.62792H18.2791C18.5566 8.62792 18.8228 8.73941 19.0191 8.93785C19.2153 9.13628 19.3256 9.40543 19.3256 9.68606C19.3256 9.9667 19.2153 10.2358 19.0191 10.4343C18.8228 10.6327 18.5566 10.7442 18.2791 10.7442H15.1395V13.9186C15.1395 14.1993 15.0293 14.4684 14.833 14.6668C14.6368 14.8653 14.3706 14.9768 14.093 14.9768C13.8155 14.9768 13.5493 14.8653 13.353 14.6668C13.1568 14.4684 13.0465 14.1993 13.0465 13.9186V10.7442H9.90698C9.62943 10.7442 9.36324 10.6327 9.16698 10.4343C8.97072 10.2358 8.86047 9.9667 8.86047 9.68606C8.86047 9.40543 8.97072 9.13628 9.16698 8.93785C9.36324 8.73941 9.62943 8.62792 9.90698 8.62792H13.0465V5.4535C13.0465 5.17287 13.1568 4.90373 13.353 4.70529C13.5493 4.50685 13.8155 4.39537 14.093 4.39537Z" fill="white" fill-opacity="0.8"/>
<path d="M3.6279 3.33719C3.6279 3.05656 3.51765 2.78741 3.32139 2.58897C3.12513 2.39054 2.85895 2.27905 2.58139 2.27905C2.30384 2.27905 2.03766 2.39054 1.8414 2.58897C1.64514 2.78741 1.53488 3.05656 1.53488 3.33719V15.6116C1.53488 19.349 4.53628 22.3837 8.23256 22.3837H20.3721C20.6496 22.3837 20.9158 22.2722 21.1121 22.0738C21.3083 21.8753 21.4186 21.6062 21.4186 21.3256C21.4186 21.0449 21.3083 20.7758 21.1121 20.5773C20.9158 20.3789 20.6496 20.2674 20.3721 20.2674H8.23256C7.01158 20.2666 5.84085 19.7758 4.97749 18.9028C4.11414 18.0299 3.62874 16.8462 3.6279 15.6116V3.33719Z" fill="white"/>
<rect x="8.3721" y="3.97211" width="11.7209" height="11.569" fill="#D2D2D2"/>
</svg>
