<svg width="22" height="20" viewBox="0 0 22 20" fill="none" xmlns="http://www.w3.org/2000/svg">
<path d="M8.56189 14.2748V6.07368C8.56167 5.80401 8.61462 5.53693 8.71771 5.28774C8.82081 5.03854 8.97203 4.81212 9.16272 4.62143C9.35341 4.43074 9.57983 4.27952 9.82903 4.17642C10.0782 4.07333 10.3453 4.02038 10.615 4.02061H20.0851V2.99709C20.0874 2.45532 19.8745 1.93479 19.4933 1.54984C19.1121 1.16488 18.5936 0.946989 18.0519 0.944016H3.24032C2.69253 0.933095 2.16267 1.1393 1.76637 1.51762C1.37006 1.89595 1.1395 2.41568 1.125 2.96338V17.3851C1.1395 17.9328 1.37006 18.4525 1.76637 18.8308C2.16267 19.2091 2.69253 19.4153 3.24032 19.4044H18.0467C18.3149 19.4031 18.5802 19.3489 18.8275 19.245C19.0747 19.141 19.2991 18.9894 19.4878 18.7987C19.6764 18.6081 19.8256 18.3821 19.9269 18.1338C20.0282 17.8854 20.0796 17.6196 20.0781 17.3513V16.3313H10.6098C10.3402 16.3309 10.0734 16.2775 9.8245 16.1739C9.57562 16.0703 9.34962 15.9187 9.15941 15.7277C8.9692 15.5366 8.81852 15.31 8.71599 15.0607C8.61346 14.8114 8.5611 14.5443 8.56189 14.2748V14.2748Z" stroke="#202020"/>
<path d="M10.5952 6.8094V13.54C10.5956 13.7439 10.6768 13.9394 10.821 14.0836C10.9652 14.2277 11.1606 14.3089 11.3645 14.3094H20.3548C20.5587 14.3089 20.7542 14.2277 20.8984 14.0836C21.0425 13.9394 21.1237 13.7439 21.1242 13.54V6.8094C21.1237 6.6055 21.0425 6.41007 20.8984 6.26588C20.7542 6.1217 20.5587 6.0405 20.3548 6.04004H11.3645C11.1606 6.0405 10.9652 6.1217 10.821 6.26588C10.6768 6.41007 10.5956 6.6055 10.5952 6.8094ZM14.3019 11.7083C13.9899 11.7282 13.6792 11.6526 13.4112 11.4915C13.1432 11.3304 12.9306 11.0914 12.8018 10.8065C12.673 10.5216 12.6341 10.2042 12.6902 9.89655C12.7463 9.58894 12.8948 9.30572 13.1159 9.08461C13.337 8.86351 13.6202 8.71501 13.9278 8.65891C14.2354 8.6028 14.5528 8.64174 14.8378 8.77055C15.1227 8.89935 15.3616 9.11191 15.5227 9.37991C15.6838 9.6479 15.7594 9.95862 15.7395 10.2707C15.7155 10.6442 15.5562 10.9962 15.2914 11.2608C15.0267 11.5254 14.6746 11.6844 14.3011 11.7083H14.3019Z" stroke="#202020"/>
</svg>
