<svg width="336" height="243" viewBox="0 0 336 243" fill="none" xmlns="http://www.w3.org/2000/svg">
<path d="M329.762 170.796C323.906 182.843 313.769 192.061 302.172 199.075C297.415 201.928 292.469 204.453 287.367 206.634C284.029 208.077 280.645 209.392 277.216 210.58C260.158 216.461 242.231 219.444 224.183 219.406C221.236 219.409 218.29 219.333 215.344 219.179C214.499 219.136 213.654 219.086 212.808 219.03C208.355 218.736 203.916 218.264 199.492 217.614C199.405 217.602 199.318 217.589 199.231 217.573C189.977 216.21 180.853 214.078 171.955 211.198C170.23 210.64 168.516 210.054 166.812 209.441C166.352 209.28 165.892 209.109 165.435 208.941C163.514 208.232 161.608 207.487 159.717 206.706C158.126 206.052 156.544 205.373 154.971 204.67C153.423 203.973 151.886 203.252 150.359 202.507C147.86 201.286 145.389 200.006 142.944 198.667C141.058 197.626 139.196 196.545 137.359 195.425C132.804 192.65 128.397 189.642 124.154 186.412C122.656 185.272 121.179 184.102 119.723 182.903C118.713 182.073 117.712 181.224 116.696 180.399C114.599 178.616 112.315 177.065 109.883 175.772C109.141 175.399 108.379 175.063 107.602 174.767C104.698 173.696 101.638 173.102 98.5429 173.01C93.1799 172.921 87.8361 173.671 82.7058 175.232C80.2766 175.917 77.8794 176.703 75.4805 177.51C74.4972 177.842 73.514 178.174 72.5307 178.508C70.4979 179.2 68.466 179.875 66.415 180.492C65.7313 180.696 65.0477 180.898 64.3606 181.087C61.6185 181.875 58.8239 182.467 55.9978 182.86C49.6864 183.66 43.2763 183.103 37.1988 181.227L36.6782 181.066C35.8106 180.793 34.9431 180.495 34.0893 180.17L33.5688 179.972C32.7423 179.653 31.9325 179.311 31.1395 178.946L30.619 178.71C29.8546 178.354 29.1059 177.982 28.3693 177.586C28.3068 177.554 28.2478 177.523 28.1862 177.489C27.9008 177.341 27.618 177.18 27.3377 177.027C22.8243 174.51 18.7197 171.325 15.1636 167.581C15.0613 167.479 14.965 167.374 14.8531 167.271C14.3585 166.738 13.8744 166.196 13.405 165.641C13.2315 165.437 13.058 165.232 12.8845 165.022C12.3281 164.343 11.7904 163.651 11.2716 162.945C11.1935 162.843 11.1189 162.737 11.0452 162.635C8.92288 159.706 7.16255 156.532 5.80232 153.182C5.75894 153.08 5.71555 152.975 5.68085 152.872C5.2673 151.809 4.88932 150.728 4.54691 149.628C4.40722 149.169 4.27362 148.697 4.15562 148.243C4.11485 148.107 4.07754 147.967 4.04371 147.831C2.34409 141.1 2.16016 134.098 2.16016 127.137V124.698C2.20961 113.438 2.384 101.986 4.04978 90.8808C4.05631 90.8037 4.06761 90.7272 4.08361 90.6515C4.64292 86.9132 5.40111 83.2072 6.35497 79.5492C7.35681 75.7127 8.63521 71.9534 10.1802 68.3006C14.0124 59.3121 19.584 51.1327 25.7717 43.5538C41.3416 24.4892 61.7769 8.46175 85.7042 2.48357C98.6579 -0.652805 112.156 -0.820825 125.184 1.99213C138.212 4.80509 150.432 10.5259 160.925 18.7248C167.056 23.5911 172.585 29.3244 179.382 33.1869C179.613 33.3202 179.846 33.4503 180.081 33.5772C180.979 34.064 181.897 34.5062 182.835 34.9036C184.077 35.4327 185.355 35.8728 186.66 36.2206C190.773 37.4057 195.145 37.3476 199.225 36.0536C199.56 35.9385 199.896 35.8182 200.228 35.685C200.934 35.4064 201.608 35.1459 202.258 34.9062C206.441 33.1781 210.97 32.4397 215.488 32.7491C228.278 33.4677 240.887 36.0996 252.892 40.5565C253.377 40.7295 253.862 40.9164 254.344 41.099C285.641 53.0476 312.551 76.7734 326.527 107.262C326.9 108.07 327.26 108.882 327.606 109.699C335.949 129.099 338.957 151.87 329.762 170.796Z" fill="#EFF6FE"/>
<path d="M20.3657 158.848V158.972L20.3188 159.027L20.3657 158.848Z" fill="#CACACA"/>
<path d="M75.4772 177.515C74.4939 177.847 73.5106 178.18 72.5273 178.513V177.515H75.4772Z" fill="white"/>
<path d="M186.664 18.1814H179.385V36.3296H186.664V18.1814Z" fill="#E4E4E4"/>
<path d="M199.228 34.8984V217.575C189.974 216.212 180.85 214.08 171.952 211.2C170.227 210.642 168.513 210.056 166.809 209.442C166.349 209.281 165.889 209.111 165.432 208.943C163.511 208.233 161.605 207.488 159.713 206.708C158.122 206.054 156.54 205.375 154.968 204.672C153.42 203.975 151.882 203.254 150.356 202.509C147.857 201.288 145.385 200.008 142.94 198.669C141.054 197.628 139.192 196.547 137.355 195.427V34.8984H199.228Z" fill="#BDDCF9"/>
<path d="M224.183 34.8984V219.407C221.237 219.41 218.291 219.334 215.344 219.181C214.499 219.138 213.654 219.088 212.808 219.032C208.355 218.738 203.916 218.266 199.492 217.616C199.405 217.604 199.318 217.591 199.231 217.576V34.8984H224.183Z" fill="#B7D6F2"/>
<path d="M157.894 53.0466H148.535V62.3803H157.894V53.0466Z" fill="white"/>
<path d="M172.972 53.0466H163.613V62.3803H172.972V53.0466Z" fill="white"/>
<path d="M188.049 53.0466H178.69V62.3803H188.049V53.0466Z" fill="white"/>
<path d="M158.154 74.3064H148.795V83.6401H158.154V74.3064Z" fill="white"/>
<path d="M173.23 74.3064H163.872V83.6401H173.23V74.3064Z" fill="white"/>
<path d="M188.308 74.3064H178.95V83.6401H188.308V74.3064Z" fill="white"/>
<path d="M158.413 95.5662H149.054V104.9H158.413V95.5662Z" fill="white"/>
<path d="M173.491 95.5662H164.132V104.9H173.491V95.5662Z" fill="white"/>
<path d="M188.569 95.5662H179.21V104.9H188.569V95.5662Z" fill="white"/>
<path d="M158.674 116.826H149.315V126.16H158.674V116.826Z" fill="white"/>
<path d="M173.751 116.826H164.393V126.16H173.751V116.826Z" fill="white"/>
<path d="M188.828 116.826H179.47V126.16H188.828V116.826Z" fill="white"/>
<path d="M158.934 138.086H149.575V147.419H158.934V138.086Z" fill="white"/>
<path d="M174.011 138.086H164.652V147.419H174.011V138.086Z" fill="white"/>
<path d="M189.089 138.086H179.73V147.419H189.089V138.086Z" fill="white"/>
<path d="M159.194 159.345H149.835V168.679H159.194V159.345Z" fill="white"/>
<path d="M174.271 159.345H164.913V168.679H174.271V159.345Z" fill="white"/>
<path d="M189.349 159.345H179.991V168.679H189.349V159.345Z" fill="white"/>
<path d="M159.454 180.605H150.095V189.939H159.454V180.605Z" fill="white"/>
<path d="M174.532 180.605H165.173V189.939H174.532V180.605Z" fill="white"/>
<path d="M189.609 180.605H180.25V189.939H189.609V180.605Z" fill="white"/>
<path d="M159.713 201.864V206.71C158.122 206.056 156.54 205.377 154.968 204.674C153.42 203.976 151.883 203.255 150.356 202.511V201.863L159.713 201.864Z" fill="white"/>
<path d="M174.793 201.864V211.2H171.953C170.228 210.642 168.513 210.056 166.809 209.442C166.35 209.281 165.89 209.111 165.433 208.943V201.863L174.793 201.864Z" fill="white"/>
<path d="M189.868 201.865H180.51V211.199H189.868V201.865Z" fill="white"/>
<path d="M271.496 110.604H264.217V121.36H271.496V110.604Z" fill="#E4E4E4"/>
<path d="M277.217 120.437V210.58C260.159 216.461 242.232 219.444 224.183 219.406C221.237 219.409 218.291 219.333 215.345 219.179V120.437H277.217Z" fill="#BDDCF9"/>
<path d="M302.172 120.437V199.075C297.415 201.929 292.469 204.454 287.367 206.635C284.029 208.077 280.646 209.393 277.216 210.581V120.437H302.172Z" fill="#B7D6F2"/>
<path d="M236.922 138.086H227.563V147.419H236.922V138.086Z" fill="white"/>
<path d="M251.998 138.086H242.64V147.419H251.998V138.086Z" fill="white"/>
<path d="M267.077 138.086H257.718V147.419H267.077V138.086Z" fill="white"/>
<path d="M237.181 159.345H227.822V168.679H237.181V159.345Z" fill="white"/>
<path d="M252.259 159.345H242.9V168.679H252.259V159.345Z" fill="white"/>
<path d="M267.337 159.345H257.978V168.679H267.337V159.345Z" fill="white"/>
<path d="M237.442 180.605H228.083V189.939H237.442V180.605Z" fill="white"/>
<path d="M252.519 180.605H243.161V189.939H252.519V180.605Z" fill="white"/>
<path d="M267.597 180.605H258.238V189.939H267.597V180.605Z" fill="white"/>
<path d="M237.702 201.865H228.343V211.199H237.702V201.865Z" fill="white"/>
<path d="M252.779 201.865H243.42V211.199H252.779V201.865Z" fill="white"/>
<path d="M267.857 201.865H258.498V211.199H267.857V201.865Z" fill="white"/>
<path d="M222.668 222.25C222.668 222.25 225.997 234.058 239.94 233.522C243.958 233.387 247.881 232.269 251.363 230.266C254.846 228.262 257.781 225.436 259.91 222.035L222.668 222.25Z" fill="#3F3D56"/>
<path d="M30.531 176.198L26.5479 183.474L27.1942 197.13L122.654 225.419L164.22 230.517L156.093 181.078L127.657 176.059L84.9985 177.271L48.8372 170.616L30.531 176.198Z" fill="#2F2E41"/>
<path d="M43.8227 224.076H41.3587C38.9767 224.084 36.642 223.413 34.6306 222.14C32.6192 220.867 31.0151 219.047 30.008 216.894C26.2088 208.623 27.3341 197.186 27.3514 197.023C28.2121 187.137 33.6449 180.688 40.8703 180.98C48.8469 181.301 55.6489 208.817 55.9343 209.988C56.4083 211.963 56.2836 214.034 55.576 215.939C54.6956 218.337 53.0942 220.406 50.9905 221.862C48.8868 223.319 46.3835 224.092 43.8227 224.076Z" fill="#3F3D56"/>
<path d="M144.307 242.968C143.886 242.958 143.465 242.918 143.049 242.847C139.861 242.346 136.847 241.063 134.279 239.113C131.711 237.163 129.668 234.607 128.335 231.675C127.336 229.512 126.374 227.29 125.478 225.081C121.878 216.21 124.896 200.703 129.8 194.701C134.128 189.402 138.484 189.445 145.079 189.509C145.756 189.515 146.457 189.522 147.185 189.523C154.508 189.535 162.248 216.398 164.792 225.225C164.994 225.927 165.162 226.508 165.292 226.944C165.687 228.516 165.638 230.166 165.151 231.713C164.352 234.556 162.709 237.092 160.437 238.987C158.165 240.881 155.371 242.044 152.423 242.324C148.069 242.751 145.336 242.968 144.307 242.968Z" fill="#3F3D56"/>
<path d="M27.1981 197.131C27.1981 197.131 24.3992 184.679 28.5975 176.198L32.8288 166L48.8159 180.816L52.4668 203.996L115.03 213.45C115.03 213.45 111.155 175.448 135.481 173.945C159.806 172.442 171.354 213.448 171.354 213.448L183.492 222.251L268.095 216.021C268.095 216.021 269.589 220.1 267.443 222.251C265.296 224.402 162.606 231.053 162.606 231.053C162.606 231.053 157.439 180.169 136.989 184.893C116.538 189.616 122.654 225.418 122.654 225.418L49.5872 212.588C49.5872 212.588 47.2196 178.022 35.1635 178.022C23.1074 178.022 27.1981 197.131 27.1981 197.131Z" fill="#3F3D56"/>
<path d="M41.6162 153.84L55.3997 132.295L114.17 128.859L179.398 129.719L209.752 157.84L115.891 163.205L40.3296 159.126L41.6162 153.84Z" fill="#3F3D56"/>
<path d="M41.6164 153.84C41.6164 153.84 29.89 154.084 28.6025 176.198C28.6025 176.198 41.0881 153.654 51.8541 203.894L116.109 214.307C116.109 214.307 113.741 172.441 138.067 175.661C162.392 178.882 168.204 217.312 168.204 217.312C168.204 217.312 172.941 226.759 198.988 225.256C225.036 223.753 264.002 221.392 268.091 216.024C268.091 216.024 277.564 184.034 248.071 163.422L209.752 157.84L122.992 159.558L41.6164 153.84Z" fill="#FBCA0C"/>
<path d="M71.0067 168.894H63.6877C63.288 168.894 62.9047 168.736 62.6221 168.454C62.3394 168.172 62.1807 167.79 62.1807 167.391C62.1807 166.992 62.3394 166.61 62.6221 166.328C62.9047 166.046 63.288 165.888 63.6877 165.888H71.0067C71.4064 165.888 71.7897 166.046 72.0723 166.328C72.3549 166.61 72.5137 166.992 72.5137 167.391C72.5137 167.79 72.3549 168.172 72.0723 168.454C71.7897 168.736 71.4064 168.894 71.0067 168.894Z" fill="#CACACA"/>
<path d="M182.412 215.595C185.028 215.595 187.148 213.48 187.148 210.872C187.148 208.263 185.028 206.148 182.412 206.148C179.796 206.148 177.676 208.263 177.676 210.872C177.676 213.48 179.796 215.595 182.412 215.595Z" fill="white"/>
<path d="M180.064 187.694C176.195 187.512 172.487 186.095 169.486 183.652C163.372 178.954 160.803 172.018 163.76 168.19C166.717 164.362 174.096 165.069 180.21 169.767C182.998 171.82 185.166 174.6 186.474 177.801C187.566 180.729 187.374 183.366 185.936 185.228C184.656 186.887 182.544 187.694 180.064 187.694Z" fill="white"/>
<path d="M264.227 181.697C261.841 181.697 257.557 179.288 253.315 175.381C251.006 173.32 249.008 170.938 247.382 168.308C246.081 166.058 245.783 164.361 246.547 163.536C247.31 162.712 249.028 162.873 251.383 163.99C254.14 165.399 256.679 167.197 258.92 169.33C264.287 174.275 267.259 179.478 265.687 181.175C265.494 181.359 265.264 181.501 265.013 181.591C264.761 181.681 264.494 181.717 264.227 181.697Z" fill="white"/>
<path d="M64.1593 153.836C64.1078 153.836 64.0563 153.833 64.0049 153.829L48.4385 152.385C48.1545 152.359 47.882 152.261 47.6468 152.1C47.4116 151.939 47.2214 151.721 47.0945 151.466C46.9675 151.211 46.9079 150.928 46.9213 150.644C46.9347 150.36 47.0206 150.084 47.1709 149.842L55.9527 135.727C56.0963 135.496 56.2942 135.303 56.5293 135.166C56.7644 135.029 57.0296 134.951 57.3018 134.939L68.912 134.427C69.1789 134.416 69.4449 134.468 69.6875 134.579C69.9301 134.691 70.1424 134.859 70.3067 135.069C70.4709 135.28 70.5824 135.526 70.6316 135.788C70.6809 136.05 70.6666 136.32 70.5899 136.575L65.7678 152.644C65.6635 152.989 65.4508 153.29 65.1611 153.505C64.8714 153.72 64.5201 153.835 64.1593 153.836Z" fill="white"/>
<path d="M105.179 157.143C105.026 157.143 104.871 157.135 104.715 157.12L77.8043 154.478C77.1241 154.411 76.4668 154.197 75.8781 153.851C75.2894 153.504 74.7835 153.034 74.3957 152.473C74.008 151.912 73.7477 151.273 73.633 150.601C73.5183 149.929 73.552 149.24 73.7318 148.582L77.603 134.415C77.8635 133.449 78.429 132.591 79.2158 131.97C80.0026 131.349 80.969 130.996 81.9722 130.965L103.691 130.208C104.869 130.173 106.018 130.579 106.912 131.346C107.805 132.112 108.38 133.184 108.521 134.351L110.314 149.77C110.374 150.284 110.348 150.805 110.237 151.311L109.766 153.457C109.537 154.501 108.957 155.435 108.123 156.105C107.289 156.776 106.251 157.141 105.179 157.143Z" fill="white"/>
<path d="M126.182 157.887C125.394 157.885 124.63 157.618 124.014 157.129C123.397 156.64 122.964 155.958 122.784 155.193L118.037 134.728C117.918 134.218 117.917 133.688 118.032 133.177C118.148 132.667 118.378 132.189 118.704 131.779C119.031 131.37 119.446 131.039 119.919 130.811C120.391 130.584 120.909 130.466 121.434 130.466H177.731C178.198 130.467 178.66 130.561 179.09 130.743C179.519 130.924 179.909 131.189 180.234 131.523L198.623 150.431C199.096 150.916 199.416 151.53 199.545 152.194C199.673 152.859 199.604 153.547 199.346 154.174C199.088 154.8 198.652 155.338 198.092 155.72C197.532 156.103 196.873 156.315 196.194 156.329L126.255 157.887L126.182 157.887Z" fill="white"/>
<path d="M54.9194 133.043L55.4001 132.292C55.4001 132.292 58.1989 124.562 96.7331 123.274C135.267 121.986 171.219 122.63 179.399 129.715L112.879 129.501L56.6919 133.365L54.9194 133.043Z" fill="#F4A11F"/>
<path d="M36.6711 188.113C32.629 188.113 29.3521 194.842 29.3521 203.142C29.3521 211.443 32.629 218.171 36.6711 218.171C40.7132 218.171 43.9901 211.443 43.9901 203.142C43.9901 194.842 40.7132 188.113 36.6711 188.113ZM36.9938 191.334C37.8857 191.334 38.6084 193.064 38.6084 195.198C38.6084 197.332 37.8857 199.062 36.9938 199.062C36.1019 199.062 35.3792 197.332 35.3792 195.198C35.3792 193.064 36.1019 191.334 36.9938 191.334ZM37.9629 203.142C37.9253 203.346 37.8303 203.535 37.6889 203.687C37.5475 203.839 37.3656 203.948 37.1645 204C36.9634 204.053 36.7514 204.047 36.5534 203.984C36.3554 203.921 36.1796 203.803 36.0465 203.644C35.9134 203.484 35.8286 203.29 35.8019 203.085C35.7753 202.879 35.8079 202.67 35.896 202.482C35.9841 202.295 36.1241 202.136 36.2994 202.024C36.4748 201.913 36.6784 201.854 36.8862 201.854C37.2 201.885 37.4888 202.038 37.6901 202.28C37.8915 202.522 37.9892 202.833 37.9621 203.147L37.9629 203.142ZM32.3392 203.969C30.951 204.076 29.7971 203.696 29.752 203.121C29.7069 202.547 30.7931 201.997 32.1813 201.887C33.5694 201.777 34.7233 202.16 34.7684 202.736C34.8136 203.311 33.7273 203.86 32.3392 203.97V203.969ZM36.9947 214.951C36.1028 214.951 35.3801 213.22 35.3801 211.086C35.3801 208.953 36.1028 207.222 36.9947 207.222C37.8866 207.222 38.6093 208.953 38.6093 211.086C38.6093 213.22 37.8857 214.951 36.9938 214.951H36.9947ZM41.1661 203.969C39.7779 204.076 38.624 203.696 38.5789 203.121C38.5338 202.547 39.62 201.997 41.0082 201.887C42.3963 201.777 43.5502 202.16 43.5953 202.736C43.6405 203.311 42.5542 203.86 41.1661 203.97V203.969Z" fill="#E4E4E4"/>
<path d="M138.926 198.204C132.505 198.204 127.3 206.808 127.3 217.42C127.3 228.033 132.505 236.636 138.926 236.636C145.346 236.636 150.551 228.033 150.551 217.42C150.551 206.808 145.346 198.204 138.926 198.204ZM131.985 218.862C130.11 219.006 128.541 218.491 128.481 217.713C128.42 216.934 129.891 216.184 131.766 216.04C133.641 215.895 135.21 216.41 135.27 217.189C135.331 217.968 133.859 218.718 131.98 218.863L131.985 218.862ZM138.937 233.522C137.729 233.522 136.75 231.179 136.75 228.287C136.75 225.395 137.729 223.052 138.937 223.052C140.145 223.052 141.124 225.396 141.124 228.287C141.124 231.178 140.14 233.522 138.932 233.522H138.937ZM137.208 217.527C137.268 217.201 137.42 216.898 137.646 216.655C137.872 216.412 138.163 216.238 138.485 216.153C138.807 216.069 139.146 216.078 139.463 216.179C139.78 216.28 140.062 216.47 140.275 216.725C140.488 216.979 140.624 217.29 140.666 217.619C140.709 217.948 140.656 218.282 140.515 218.583C140.374 218.883 140.15 219.138 139.869 219.316C139.589 219.494 139.263 219.588 138.93 219.588C138.428 219.54 137.966 219.297 137.643 218.911C137.32 218.525 137.162 218.028 137.203 217.527H137.208ZM138.937 212.002C137.729 212.002 136.75 209.659 136.75 206.767C136.75 203.875 137.729 201.532 138.937 201.532C140.145 201.532 141.124 203.875 141.124 206.767C141.124 209.659 140.14 212.002 138.932 212.002H138.937ZM146.311 218.432C144.437 218.577 142.868 218.062 142.807 217.283C142.746 216.505 144.218 215.755 146.093 215.611C147.968 215.466 149.536 215.981 149.597 216.76C149.658 217.539 148.179 218.288 146.304 218.432H146.311Z" fill="#E4E4E4"/>
<path d="M98.2388 159.773L100.822 165.784C100.822 165.784 105.128 167.502 107.926 161.705L102.256 156.05L98.2388 159.773Z" fill="#CACACA"/>
<path d="M94.6867 161.169C90.0572 161.169 86.291 158.665 86.291 155.587C86.291 152.509 90.0572 150.004 94.6867 150.004C99.3162 150.004 103.082 152.508 103.082 155.587C103.082 158.666 99.3162 161.169 94.6867 161.169Z" fill="#CACACA"/>
<path d="M256.575 180.813L208.444 182.22C208.444 182.22 197.91 185.167 196.835 193.586C196.835 193.586 198.341 200.462 202.209 200.462C206.078 200.462 265.41 197.374 265.41 197.374C265.41 197.374 269.279 191.481 266.055 187.271C262.83 183.062 256.575 180.813 256.575 180.813Z" fill="#3F3D56"/>
<path d="M260.715 183.499L204.296 185.357L204.318 186.001L260.736 184.142L260.715 183.499Z" fill="#E4E4E4"/>
<path d="M262.796 185.538L201.407 188.312L201.436 188.955L262.825 186.181L262.796 185.538Z" fill="#E4E4E4"/>
<path d="M264.942 188.309L199.109 191.835L199.144 192.478L264.977 188.952L264.942 188.309Z" fill="#E4E4E4"/>
<path d="M36.328 174.039C36.065 173.703 35.8793 173.312 35.784 172.896C35.6887 172.48 35.686 172.048 35.7761 171.631C35.8663 171.213 36.0471 170.821 36.3058 170.481C36.5646 170.14 36.8949 169.861 37.2736 169.662L36.6663 163.017L40.6252 161.661L41.3565 171.058C41.6504 171.715 41.6923 172.456 41.4742 173.142C41.2561 173.827 40.7932 174.409 40.1734 174.777C39.5536 175.145 38.82 175.273 38.1118 175.137C37.4036 175.001 36.77 174.61 36.3314 174.039H36.328Z" fill="#FFB8B8"/>
<path d="M40.5777 135.897C40.5777 135.897 43.2942 130.212 45.7078 132.211C48.1214 134.209 42.3979 151.023 42.3979 151.023L41.5303 167.346L36.9425 166.888L35.6411 150.987L40.5777 135.897Z" fill="#E6E6E6"/>
<path d="M4.13916 220.017L7.54446 222.766L19.7984 210.973L14.7724 206.919L4.13916 220.017Z" fill="#FFB8B8"/>
<path d="M4.17041 218.208L10.8769 223.622C12.0104 224.537 12.7329 225.863 12.8855 227.31C13.0381 228.756 12.6083 230.204 11.6907 231.335L11.5779 231.473L0.597656 222.609L4.17041 218.208Z" fill="#2F2E41"/>
<path d="M51.4685 227.65H55.8499L57.9321 210.795H51.4668L51.4685 227.65Z" fill="#FFB8B8"/>
<path d="M50.3511 226.223H58.9802C60.4385 226.223 61.8372 226.801 62.8684 227.83C63.8996 228.858 64.479 230.253 64.479 231.708V231.886H50.3511V226.223Z" fill="#2F2E41"/>
<path d="M59.1574 148.633C59.1574 148.633 67.3769 158.613 65.5906 168.593C63.8042 178.574 62.3744 186.059 62.3744 186.059L59.5165 208.514C59.5165 208.514 60.5889 214.629 59.1591 216.205C59.1591 216.205 61.3038 219.92 57.3719 221.346C53.4399 222.772 51.3178 220.854 51.3178 220.854C51.3178 220.854 48.4356 216.713 50.222 215.645L50.9751 171.573L22.3445 208.867C22.3445 208.867 21.8187 213.403 18.1497 213.453L13.7666 216.71L8.76318 213.854L11.2653 210.647C11.2653 210.647 9.83553 207.083 13.0526 206.37L31.6373 182.132L36.2833 169.657C36.2833 169.657 38.7854 160.033 45.5752 156.113V151.941L59.1574 148.633Z" fill="#EF502D"/>
<path d="M45.0404 131.345C46.1225 130.07 47.6372 129.236 49.296 129.002C50.9548 128.769 52.6418 129.152 54.0356 130.078L54.3324 130.276C57.5051 133.859 59.6376 138.237 60.5001 142.939L61.8388 150.237L45.0413 153.866L41.1033 140.321C40.6035 138.601 40.7238 136.762 41.4433 135.122C42.1628 133.482 43.436 132.146 45.0413 131.345H45.0404Z" fill="#E6E6E6"/>
<path d="M72.6362 175.591C72.1706 175.439 71.744 175.187 71.3867 174.852C71.0293 174.518 70.7498 174.11 70.5678 173.656C70.3858 173.202 70.3058 172.714 70.3334 172.226C70.361 171.738 70.4955 171.262 70.7275 170.832L65.8794 164.921L68.765 161.108L75.4906 169.556C76.1905 169.992 76.7057 170.669 76.9386 171.458C77.1714 172.248 77.1057 173.095 76.7538 173.839C76.402 174.584 75.7884 175.173 75.0296 175.497C74.2708 175.82 73.4195 175.854 72.6371 175.593L72.6362 175.591Z" fill="#FFB8B8"/>
<path d="M52.1869 136.692C52.1869 136.692 51.1146 129.563 54.6891 129.919C58.2636 130.276 63.6253 149.879 63.6253 149.879L73.2747 165.919L68.6287 168.414L57.1929 154.157L52.1869 136.692Z" fill="#E6E6E6"/>
<path d="M58.7318 126.27H41.7131C41.363 126.27 41.0274 126.131 40.7798 125.884C40.5323 125.637 40.393 125.303 40.3926 124.953V117.638C40.3926 115.037 41.4282 112.544 43.2717 110.705C45.1151 108.867 47.6154 107.834 50.2224 107.834C52.8295 107.834 55.3297 108.867 57.1732 110.705C59.0166 112.544 60.0523 115.037 60.0523 117.638V124.955C60.0513 125.304 59.9119 125.638 59.6644 125.885C59.4169 126.131 59.0815 126.27 58.7318 126.27Z" fill="#2F2E41"/>
<path d="M52.2432 126.101C56.2236 126.101 59.4503 122.883 59.4503 118.913C59.4503 114.943 56.2236 111.725 52.2432 111.725C48.2629 111.725 45.0361 114.943 45.0361 118.913C45.0361 122.883 48.2629 126.101 52.2432 126.101Z" fill="#FFB8B8"/>
<path d="M62.3762 118.37H53.3072L53.2144 116.88L52.7494 118.37H51.3534L51.1695 115.416L50.2481 118.37H47.5464V118.223C47.5464 113.947 50.583 110.469 54.3249 110.469H55.6037C59.3405 110.469 62.3822 113.948 62.3822 118.223L62.3762 118.37Z" fill="#2F2E41"/>
<path d="M53.6836 127.636C53.573 127.636 53.4625 127.627 53.3531 127.611L42.5576 125.952V114.738C42.5576 113.592 43.0139 112.494 43.8261 111.684C44.6384 110.874 45.74 110.418 46.8886 110.418H54.4411L54.1478 110.717C50.0545 114.87 53.1388 121.612 55.3407 125.261C55.5025 125.524 55.5755 125.831 55.5491 126.137C55.5227 126.444 55.3983 126.734 55.1941 126.965C55.0067 127.18 54.7745 127.351 54.5137 127.467C54.253 127.583 53.97 127.641 53.6845 127.637L53.6836 127.636Z" fill="#2F2E41"/>
</svg>
